<mxfile host="app.diagrams.net" agent="Mozilla/5.0 (Windows NT 10.0; Win64; x64) AppleWebKit/537.36 (KHTML, like Gecko) Chrome/138.0.0.0 Safari/537.36" version="28.0.7">
  <diagram name="Page-1" id="_Rtyqk_V0sAWum6Zme1H">
    <mxGraphModel dx="1123" dy="656" grid="1" gridSize="9" guides="1" tooltips="1" connect="1" arrows="1" fold="1" page="1" pageScale="1" pageWidth="850" pageHeight="1100" math="0" shadow="0">
      <root>
        <mxCell id="0" />
        <mxCell id="1" parent="0" />
        <mxCell id="Y444ncimPn9f4-lGVhk9-1" value="&lt;div&gt;&lt;font style=&quot;font-size: 15px;&quot;&gt;start&lt;/font&gt;&lt;/div&gt;" style="ellipse;whiteSpace=wrap;html=1;fillColor=#d5e8d4;gradientColor=#97d077;strokeColor=#82b366;" vertex="1" parent="1">
          <mxGeometry x="290" y="40" width="190" height="50" as="geometry" />
        </mxCell>
        <mxCell id="Y444ncimPn9f4-lGVhk9-2" value="&lt;font style=&quot;font-size: 14px;&quot;&gt;New user?&lt;/font&gt;" style="rhombus;whiteSpace=wrap;html=1;fillColor=#e51400;fontColor=#ffffff;strokeColor=#B20000;" vertex="1" parent="1">
          <mxGeometry x="313" y="126" width="144" height="80" as="geometry" />
        </mxCell>
        <mxCell id="Y444ncimPn9f4-lGVhk9-6" value="" style="edgeStyle=orthogonalEdgeStyle;rounded=0;orthogonalLoop=1;jettySize=auto;html=1;" edge="1" parent="1" source="Y444ncimPn9f4-lGVhk9-3">
          <mxGeometry relative="1" as="geometry">
            <mxPoint x="390" y="392" as="targetPoint" />
          </mxGeometry>
        </mxCell>
        <mxCell id="Y444ncimPn9f4-lGVhk9-3" value="Recognize the face" style="shape=parallelogram;perimeter=parallelogramPerimeter;whiteSpace=wrap;html=1;fixedSize=1;fillColor=#d80073;fontColor=#ffffff;strokeColor=#A50040;" vertex="1" parent="1">
          <mxGeometry x="300" y="252" width="180" height="60" as="geometry" />
        </mxCell>
        <mxCell id="Y444ncimPn9f4-lGVhk9-10" value="&lt;font style=&quot;font-size: 14px;&quot;&gt;Face recognized&lt;/font&gt;" style="rhombus;whiteSpace=wrap;html=1;fillColor=#b1ddf0;strokeColor=#10739e;" vertex="1" parent="1">
          <mxGeometry x="324" y="387" width="135" height="80" as="geometry" />
        </mxCell>
        <mxCell id="Y444ncimPn9f4-lGVhk9-14" value="stored in CSV file with registration number and date time of entry" style="shape=parallelogram;perimeter=parallelogramPerimeter;whiteSpace=wrap;html=1;fixedSize=1;fillColor=#fa6800;strokeColor=#C73500;fontColor=#000000;" vertex="1" parent="1">
          <mxGeometry x="279" y="522" width="211.5" height="60" as="geometry" />
        </mxCell>
        <mxCell id="Y444ncimPn9f4-lGVhk9-15" value="End" style="ellipse;whiteSpace=wrap;html=1;fillColor=#ffe6cc;strokeColor=#d79b00;" vertex="1" parent="1">
          <mxGeometry x="304" y="630" width="162" height="80" as="geometry" />
        </mxCell>
        <mxCell id="Y444ncimPn9f4-lGVhk9-16" value="" style="edgeStyle=none;orthogonalLoop=1;jettySize=auto;html=1;rounded=0;" edge="1" parent="1">
          <mxGeometry width="100" relative="1" as="geometry">
            <mxPoint x="389.5" y="467" as="sourcePoint" />
            <mxPoint x="389.5" y="521" as="targetPoint" />
            <Array as="points" />
          </mxGeometry>
        </mxCell>
        <mxCell id="Y444ncimPn9f4-lGVhk9-17" value="" style="endArrow=classic;html=1;rounded=0;" edge="1" parent="1">
          <mxGeometry width="50" height="50" relative="1" as="geometry">
            <mxPoint x="384.25" y="581" as="sourcePoint" />
            <mxPoint x="384.25" y="630" as="targetPoint" />
          </mxGeometry>
        </mxCell>
        <mxCell id="Y444ncimPn9f4-lGVhk9-18" value="" style="endArrow=classic;html=1;rounded=0;" edge="1" parent="1">
          <mxGeometry width="50" height="50" relative="1" as="geometry">
            <mxPoint x="384.25" y="90" as="sourcePoint" />
            <mxPoint x="384.25" y="130" as="targetPoint" />
          </mxGeometry>
        </mxCell>
        <mxCell id="Y444ncimPn9f4-lGVhk9-19" value="" style="endArrow=classic;html=1;rounded=0;" edge="1" parent="1">
          <mxGeometry width="50" height="50" relative="1" as="geometry">
            <mxPoint x="384.5" y="203" as="sourcePoint" />
            <mxPoint x="384.5" y="252" as="targetPoint" />
          </mxGeometry>
        </mxCell>
      </root>
    </mxGraphModel>
  </diagram>
</mxfile>
